# xmcd
#
# Track frame offsets:
#	150
#	17803
#	38900
#	62475
#
# Disc length: 1065
#
# Revision: 1
# Processed by: cddbd v1.5.1PL0 Copyright (c) Steve Scherf et al.
# Submitted via: CDex 1.51
# Normalized: r0:TRMNUM
#
DISCID=2a042704
DTITLE=F.O.H. - Summer Gorgeous
DYEAR=2003
DGENRE=R&B
TTITLE0=Summer Gorgeous
TTITLE1=JOY
TTITLE2=I Believe (OT's Unplugged Version)
TTITLE3=Summer Gorgeous (Instrumental Version)
EXTD=YEAR: 2003
EXTT0=
EXTT1=
EXTT2=
EXTT3=
PLAYORDER=
